<svg id="dart" data-name="dart" xmlns="http://www.w3.org/2000/svg" viewBox="0 0 594 598">
	<title>dart</title>
	<g id="plain">
		<path d="M260,598c-1.1-1.2-2.1-2.5-3.2-3.7c-23.2-23.2-46.4-46.4-69.6-69.6c-8.6-8.5-17.7-16.6-26.1-25.3
			c-11.9-12.4-20.4-27.1-27.2-44c6.1,2,11.6,3.7,16.9,5.6c40.2,14.2,80.4,28.4,120.6,42.7c36,12.7,72.1,25.5,108.2,38.2
			c15.1,5.3,30.2,10.7,45.2,16c6.4,2.3,12.5,2.5,19-0.5c19.2-8.8,38.6-17.1,58-25.7c0.9-0.4,1.8-0.7,3.4-1.3
			c-7.5,23-14.8,45.3-22.1,67.6L260,598z"/>
		<path d="M594,485l-63.8,19.9c4.3-9.6,8.5-18.8,12.5-28.1c5.7-13.4,11.4-26.8,16.4-40.4c1.2-3.4,0-8.1-1.3-11.8
			c-11.6-33.3-23.5-66.5-35.3-99.8c-15.6-44.2-31.2-88.4-46.8-132.6c-6.9-19.5-13.8-39-20.9-59.1c14.6,6.3,28.2,12.9,39.2,23.5
			c13.2,12.6,26.1,25.4,39,38.3c20,20,39.9,40.2,59.8,60.3c0.4,0.3,0.8,0.6,1.2,0.8V485z"/>
		<path d="M0,311l110-166.2v6.2c0,87.1,0,174.2,0.1,261.4c0,6.3,1.2,12.7,1.9,19.2c-8.5-2.9-16.8-5.7-25-8.7c-2-0.9-3.7-2.1-5.2-3.7
			c-14.1-14-28.3-27.8-42-42.1c-11.1-11.5-22-23.3-32.3-35.6c-3.6-4.3-5-10.3-7.4-15.6L0,311z"/>
		<path d="M326,0c13.3,4,23.3,12.4,32.9,22.2c18.4,18.8,37.4,37.2,56.4,55.4c5.1,4.9,8.8,11,10.7,17.8c1.7,5.4,3.6,10.8,5.5,16.4
			c-5.6-0.6-11.2-1.7-16.8-1.7c-87.3-0.1-174.6-0.1-261.9-0.1h-6l-0.5-1L311,0H326z"/>
		<path d="M127.2,125.1h6.1c88.5,0,177,0,265.4,0c10.4,0,20.8,1,31.2,2c4.6,0.5,7.6,2.8,9.4,8.1c27.4,78.5,55,156.9,82.8,235.2
			c7.3,20.5,14.6,41,21.8,61.5c0.5,1.3,0.5,2.7,0,4c-10.5,23.8-21.1,47.7-31.8,71.4c-0.3,0.7-0.7,1.4-0.8,1.6L127.2,125.1z"/>
		<path d="M126.4,148l369.5,369.5l-35.5,15.6c-7.6,3.4-15.2,6.9-23,10c-2.3,0.9-4.8,1.1-7.1,0.5c-45.8-16-91.6-32.3-137.4-48.5
			c-53.3-18.8-106.7-37.6-160-56.3c-2.6-0.9-3.6-2-4.2-5c-3.2-15.3-3.7-30.7-3.7-46.3c0-70.1,0-140.3,0.1-210.4
			C125.1,167.3,125.9,157.5,126.4,148z"/>
	</g>
</svg>