<svg id="elixir" data-name="elixir" xmlns="http://www.w3.org/2000/svg" viewBox="0 0 257.08 414.6">
    <title>elixir</title>
    <g id="plain">
        <path d="M54.45,109.6c-6.3-.7-12-.7-17.3-2.2-10.6-3-16.3-11.3-14.6-25.1,1-7.9,10-16.5,19.7-16.5h9.9C44.05,43.7,36.05,22,28,0h202.2c-8,21.8-15.9,43.3-24.2,65.8h8.9c10.2.1,18.7,7.1,21.3,17.5,1.9,7.7-3.3,19.1-11.2,23-3.3,1.6-7.3,2-11,2.5-3.2.4-6.6.1-10.4.1v8.9c0,20.2-.1,40.3.1,60.5a7.46,7.46,0,0,0,2.4,5.1c15.6,12.3,28.8,26.7,37.4,44.8a171.21,171.21,0,0,1,10.7,30.1c4.3,16.4,3.1,33.3,1.3,49.9-2.1,19.5-10,37-21.5,52.8-13.1,18.1-29.4,32.7-49.9,41.9-14.6,6.6-29.8,11.8-46.1,11.7-10.7-.1-21.6.2-32-1.6a120.94,120.94,0,0,1-63.4-31.3c-13.2-12.3-24.2-26.2-31-42.9a252.24,252.24,0,0,1-8.8-28c-3.7-14.1-3.2-28.7-1.2-42.9A122.54,122.54,0,0,1,23,213.8a131,131,0,0,1,29.4-30.5,5,5,0,0,0,1.8-3.1C54.55,156.6,54.45,133.1,54.45,109.6Zm37.4-.5V185c0,10.6-5.1,18.7-12.6,25.7-7.2,6.8-14.9,13.1-21.5,20.4-10.7,12-16.2,26.8-18.5,42.4a87.74,87.74,0,0,0,4.2,42.5,92.32,92.32,0,0,0,28.3,40.8c13.3,11,28.6,16.9,45.7,19.9,14.8,2.6,28.8.4,42.3-4.5a89.85,89.85,0,0,0,46.9-38.5c8.5-13.9,12.5-29,13.7-45,.3-4.5-1.2-9-1.4-13.5-.5-10.3-4.1-19.9-8.5-28.8a93,93,0,0,0-29.4-34.4c-10-7.2-15-17.4-14.8-30.2.3-22.5.1-45,.1-67.5,0-1.7-.2-3.5-.2-5.3Zm-9.7-71.8c3.7,10.1,7,19.2,10.3,28.3h73.3L176,37.3Z"/>
        <path d="M64.75,260.1c6.6,7.9,13.8,14.4,23.3,17.8a33.66,33.66,0,0,0,24.2-.2c15.4-5.9,30.8-11.8,46.2-17.4,9.1-3.3,18.4-6.2,27.7-9a5.27,5.27,0,0,1,4.6,1.7,61.13,61.13,0,0,1,10,29.3c.8,12.7.4,25.5-5.2,37.3-6.8,14.4-16.8,25.9-30.8,34a72.89,72.89,0,0,1-99.2-28c-.3-.6-.6-1.1-.9-1.7-7.4-13.8-9-29-7.4-44.4.6-5.6,3.1-11,4.9-16.4C62.55,262,63.75,261.2,64.75,260.1Z"/>
    </g>
</svg>