<svg id="golo" data-name="golo" xmlns="http://www.w3.org/2000/svg" viewBox="0 0 424.22 424.31">
    <title>golo</title>
    <g id="plain">
        <path d="M424.21,211.8c.8,117-95.8,211.6-210.7,212.5C96.21,425.1-1.19,327.7,0,212c.6-58.4,20.1-108.6,61.6-149.7S153.51.3,212.31,0c58.5-.3,108,20.9,149.1,61.6C403.11,102.8,423.51,153.3,424.21,211.8Zm-92.3-71.1c.9,1.5,1.4,2.2,1.8,2.9a129.1,129.1,0,0,1,14.5,41.8,153.57,153.57,0,0,1-3.3,64.7,140.84,140.84,0,0,1-35.3,62.8c-20.8,21.7-45.9,35.3-75.9,39.8a143.72,143.72,0,0,1-59.8-3.5,139,139,0,0,1-65.6-39.3c-22.2-23.4-33.3-51.4-35.7-83.1a145.33,145.33,0,0,1,3.3-43.6c7.3-31.1,22.6-57.5,46.8-78.4,15.7-13.6,33.9-22.9,53.6-29.3,16.1-5.2,27.8-24.4,18.8-42.1-7-13.8-21.1-20.4-34.9-16.8-17.8,4.6-34.4,12.5-50.2,21.9-28,16.8-50.7,38.8-67.3,66.9-14.5,24.5-24.5,50.7-28.8,79.1a191.53,191.53,0,0,0,.6,62.3,218.48,218.48,0,0,0,17.2,53.5c12.6,27.3,30.4,50.4,54.4,68.5a214.94,214.94,0,0,0,90,39.8c23.9,4.6,47.8,5.5,71.9,1.4a183.85,183.85,0,0,0,68.3-27c30.5-19.7,55.1-45,71.7-77.5,12.6-24.7,19.7-50.8,22.5-78.5,2-19.3,1.3-38.3-3-56.9-3.7-15.9-9.6-31.5-15.8-46.6-7.3-17.6-18.2-33.3-30.8-47.6-9.8-11.1-22.3-14.4-34.6-8.8a50.47,50.47,0,0,0-13.6,9.9c-8.6,8.3-16.8,17.1-25.2,25.6-5.2,5.2-7.6,5.4-13.8,1.8a119.55,119.55,0,0,0-47.8-15.8c-25.6-2.9-49.6,1.4-72.2,13.7-34.4,18.7-54.5,48-62.7,85.6-3.8,17.5-3,35.2,1.3,52.8,6.2,25.7,19,47.4,38.8,64.9,17.4,15.5,37.7,25.3,60.9,28.6,17.7,2.5,35.4,2.3,52.7-2.5a119.63,119.63,0,0,0,52.9-30.8c18.4-18.3,30.9-40.1,34.6-66,1.9-13.2,2.9-27,1.3-40.1-1.6-12.6-7.1-24.7-10.8-37.1-.5-1.8-1.3-4.4-.5-5.5C324.61,148.4,328.11,145.1,331.91,140.7Z"/>
        <path d="M362.31,210.2c-.8-27.6-8.5-53-22.2-76.6-4.6-7.9-8.1-8.3-14.3-1.9-18.5,18.9-36.8,38-55.4,56.9q-18.15,18.6-36.9,36.6c-7.5,7.3-19.7,6.9-27.1-.5-7.8-7.8-8.2-18.8-.4-26.7q40.35-40.65,80.9-80.9c12-12,24.8-23.2,36.5-35.4,8-8.3,21.4-8.8,29.2,1.5,8.6,11.4,17.1,23,24.4,35.3a158.85,158.85,0,0,1,19.4,51.6c3.5,18.5,5,37,2.9,56-2.1,19.7-5.8,38.8-13.1,57.1-15.7,39.6-42.8,69.6-78.5,92.4a162.63,162.63,0,0,1-57.6,22.9,183.46,183.46,0,0,1-46.2,2.5c-21.1-1.3-41.5-5.2-61.2-12.9-39.4-15.3-71.4-39.7-93.1-76.5-11-18.8-19.2-38.8-22.8-60.3-1.9-11.6-4-23.3-4.1-35a191.24,191.24,0,0,1,21-90.3c24.9-49.1,64.1-81.3,116.2-97.9,7.7-2.5,15.6-1.7,21.6,4.9,5.4,5.9,7.1,12.8,4.2,20.3-2.7,7.1-8.8,10.4-15.5,13.2-10.6,4.4-21.3,8.6-31.4,14-29.3,15.9-49.9,39.9-63.5,70.1-10.9,24.3-16.4,49.7-14.2,76.2,2.8,34.3,14.9,64.8,38.7,90.4a146.65,146.65,0,0,0,67.3,41.4c51.2,15,98.1,6.1,139.5-28.3,26.3-21.9,42.1-50.5,50.1-83.3C359.91,235.1,360.61,222.5,362.31,210.2Z"/>
    </g>
</svg>