<svg id="groovy" data-name="groovy" xmlns="http://www.w3.org/2000/svg" viewBox="0 0 598 575">
    <title>groovy</title>
    <path d="M114.9,573.7c2-11.8,3.8-22.4,5.6-33c9.6-56.8,19.3-113.7,28.8-170.5c0.2-2.3-0.6-4.6-2.2-6.4
		C99.5,316.7,51.8,269.6,4,222.6c-0.7-0.7-1.3-1.4-2.7-3c3.2-0.6,5.7-1.1,8.1-1.5c62.6-9.2,125.2-18.5,187.9-27.8
		c2.6-0.6,5-2,6.7-4.1c17.7-21.2,26.9-47,39-71.2c17.9-35.7,35.2-71.8,52.7-107.8c0.9-1.9,1.9-3.8,3.3-6.7c2.5,5.1,4.6,9.2,6.6,13.3
		c7.8,15.9,15.6,31.7,23.1,47.7c1.5,3.1,3.1,3.9,6.5,3.3c10.8-2.2,21.6-2,31.9,2.6c14.8,6.7,22.5,18.9,25.9,34.1
		c5.1,22.8,3.5,45.7,0.4,68.6c-0.6,4.6-1.4,9.2-2.5,13.8c-1,3.9,0.2,5.4,4.1,6c25.1,3.6,50.1,7.3,75.2,11
		c40.5,6,81.1,11.9,121.6,17.8c1.4,0.2,2.8,0.7,5,1.2c-8,7.9-15.4,15.3-22.8,22.6c-35,34.5-70,69-105.1,103.5
		c-5.9,5.9-11.8,11.8-17.8,17.5c-2.1,1.7-3,4.4-2.3,7c11.3,65.9,22.4,131.7,33.5,197.6c0.2,1.5,0.4,2.9,0.7,5.4
		c-2.1-1-3.5-1.6-4.8-2.3c-48.3-25.6-96.5-51.3-144.8-77c-3.4-1.8-6.2-1.9-9.9-0.9c-22,5.9-44.1,11.7-66.3,16.9
		c-4.3,1-9.4,0.2-13.7-1.1c-2.9-1-6.1-0.7-8.8,0.9c-37.9,20.3-75.9,40.4-113.9,60.6C119.4,571.5,117.6,572.3,114.9,573.7z M377,268.4
		l2.1,0.4c-0.9,16.2-0.6,32.6-3,48.6c-3.3,21.4-18.1,35.4-35.5,46.7c-17.7,11.5-37,19.8-56.9,26.8c-24.8,8.8-49.8,17.1-74.8,25.5
		c-4.3,1.4-5.6,3.3-3.3,7.5c11.6,21.2,25.7,41,42.1,58.8c2.3,2.8,6,3.8,9.4,2.8c10-2.6,20.1-4.7,30.1-7.4
		c28.5-7.7,56.9-15.8,83.1-29.7c12.1-6.5,23.3-14.3,32.3-24.9c15.5-18.4,18.6-40.1,16.4-63s-8.8-44.7-15.8-66.5
		c-7.5-23.1-16.1-45.9-17.6-70.6c-0.2-2.8-2.3-5.5-3.5-8.3c-2.5,1.9-6.1,3.3-7.3,5.8c-4.7,10.2-9.3,20.6-12.7,31.4
		c-7.1,22.7-18,43-34.2,60.3c-17.8,18.9-38,32.4-65.7,29.6c-12.4-1.2-24.2-3.5-32.6-13.9c-9.7-12.1-16-25.7-17.5-41.3
		c-2.1-22.1,3.5-42.7,12.5-62.5c14.8-32.6,36.7-60.2,61.7-85.5c11.7-11.9,23.7-23.5,38.5-31.6c17.7-9.7,28.4-3.8,29.3,16.4
		c1.2,25.7-4.5,50.3-12.5,74.5c-6.4,19.2-14.2,37.9-26.5,54.1c-4.1,5.4-9.1,10.1-14.8,13.8c-5.7,3.8-12.2,1.3-14.6-5.3
		c-1.7-4.7-2.6-9.6-2.7-14.6c-0.1-13.4,4-25.8,9.8-37.9c3-6.3,5.7-13,6.6-19.7c0.9-7.1,0.6-14.2-0.9-21.2c-2.1-9.5-9-11.2-16.3-4.8
		c-2.4,2.1-4.5,4.4-6.5,6.9c-10.2,13-17.3,27.6-23.3,42.9c-6.7,17-9.7,35.1-9,53.3c0.4,8.4,4.3,14.4,11.6,18.6
		c16.6,9.5,32.6,7.1,48.3-2c12.8-7.4,22.8-17.8,31.3-29.8c24.6-34.5,36.1-73.3,36.5-115.4c0.1-11.5-1.1-22.9-3.5-34.1
		c-2.2-10.6-10.4-15.6-20.8-15c-9.1,0.5-17.9,2.7-25.4,8.2c-7.1,5.2-14.4,10.3-20.9,16.2c-32.2,29.2-59,62.9-83.5,98.6
		c-12.4,18.2-23.9,36.9-32.5,57.3c-4.5,10.6-6.8,21.4-5.4,33.1c3.4,28.4,19,48.2,45,55.9c24.8,7.3,49.1,5.8,72.7-4.9
		c25.9-11.7,45.1-31,60.9-54.1C364.5,288.7,370.6,278.5,377,268.4z"/>
</svg>