<svg id="json" data-name="json" xmlns="http://www.w3.org/2000/svg"  x="0px" y="0px" viewBox="0 0 249.9 249.9">
	<title>json</title>
	<path d="M0.9,125.3C0.1,57.4,57.3-0.4,127.5,1c60.7,1.2,121.6,50.9,121.5,123.9c-0.1,68.7-58,124.7-125.1,124
		C61.6,248.3,0,197.8,0.9,125.3z M65.8,221.2l0.9-1.1c-2.9-4.1-6.1-7.9-8.5-12.2c-15.5-27-18.9-56.2-14.2-86.4c3.3-21,13-39,31-51
		c18.1-12.2,37.7-15.8,57.8-4.5c36.3,20.5,39.2,68.2,23.3,95c-4,6.7-9.4,12.6-14.8,19.6c4.3-0.8,8.3-1,12-2.3
		c22.5-7.9,35.6-24.7,41.5-46.9c6.5-24.4,3.3-48.5-6.1-71.8c-10.5-26-39.5-53.3-77.4-46.9c-31.4,5.4-57,19.6-76.4,44.6
		C18.5,78.4,11.1,102.6,12,129.4c1.1,31.7,13.6,57.8,37.1,78.9C54.2,213,60.1,216.9,65.8,221.2L65.8,221.2z M184.3,28.8l-1,1.1
		c2.6,3.5,5.5,6.9,7.7,10.7c16.2,27.7,21.3,57.5,15.2,88.9c-4.4,22.7-16.2,41.1-36.4,53.1c-19.7,11.8-39.7,12.8-58.8-1.5
		c-14.9-11.2-23.6-26.3-25.7-45c-2.6-23.3,2.1-44.3,19.5-61.3c1.1-1,2-2.2,3.5-3.8c-3,0-4.8,0-6.6,0c-0.8,0.1-1.6,0.2-2.4,0.5
		C80.3,75.8,67.7,88,60.2,105.4c-11.2,26.1-8.9,52.6-0.9,79c9.9,32.9,44,59.7,82.8,52.4c30.1-5.6,54.8-20.2,73.3-44.5
		c18.8-24.7,25.6-52.9,21.6-83.7c-3.3-25.6-14.8-47-33.4-64.6C197.6,38.4,190.8,33.9,184.3,28.8z M154.1,126.3
		c-0.3-21.1-7.7-38.5-25.9-50.5c-2.5-1.6-4.5-2-7.2-0.2c-34.1,22.3-34.5,75.9-0.7,98.7c3.2,2.2,5.6,2.2,8.9,0
		C145.9,162.7,153.6,146.4,154.1,126.3z"/>
</svg>