<svg id="kotlin" data-name="kotlin" xmlns="http://www.w3.org/2000/svg" viewBox="0 0 597 597.1">
    <title>kotlin</title>
    <g id="plain">
        <path d="M310,0h275c-1.2,1.4-2.3,2.8-3.6,4.1C471.5,113.7,361.5,223.4,251.6,333C169,415.4,86.5,497.9,4.1,580.4
			c-1.3,1.3-2.7,2.4-4.1,3.6V327c2.1-1.9,4.3-3.7,6.1-5.7c5.8-6.3,11.4-12.8,17.2-19.1c11.3-12.1,22.7-24.1,34.1-36.1
			c12.4-13.1,24.8-26.2,37.3-39.3c11.3-11.9,22.5-23.8,33.8-35.8c12.3-13,24.6-26,36.9-39c11.7-12.4,23.5-24.8,35.2-37.2l36.6-38.6
			c11.8-12.5,23.6-25.1,35.5-37.5c11.3-11.8,22.7-23.3,34-35C307.9,2.5,308.9,1.2,310,0z"/>
        <path d="M9,597c0.8-1,1.6-2.1,2.5-3c96.5-96.5,193-193.1,289.5-289.6c0.8-0.9,1.6-1.9,2.2-3c1,0.7,1.9,1.4,2.8,2.2
			c46.6,46.5,93.1,93.1,139.6,139.7c49.6,49.8,99.1,99.6,148.6,149.6c0.9,0.8,1.7,1.5,2.7,2.2c-0.3,0.7-0.5,1.8-1,1.9
			c-1.2,0.2-2.3,0.2-3.5,0.1H9z"/>
        <path d="M0,305V0h289c-3.8,4.3-7.5,8.7-11.5,12.9c-11.7,12.4-23.4,24.8-35.2,37.2C230.2,63,218,75.8,205.8,88.7
			s-24.4,25.7-36.6,38.6c-11.5,12.1-23,24.3-34.5,36.5c-11.8,12.5-23.7,25-35.5,37.5c-12.2,12.9-24.3,25.7-36.6,38.6
			c-10.4,10.9-21,21.7-31.5,32.5l-1.7,1.8L0,305z"/>
    </g>
</svg>