<svg id="lua" data-name="lua" xmlns="http://www.w3.org/2000/svg" viewBox="0 0 415.26 415.41">
    <title>lua</title>
    <g id="plain">
        <path d="M181.26,415.41c-48.5-.9-90.8-17.6-125.6-51.5-40.3-39.2-58.9-87.5-55.2-143.3,2.9-44.3,20.7-83.1,52.3-114.6,36.3-36.2,80.4-54.3,131.9-53.8,96.3,1,182.9,81.8,178.1,189.9-2.1,47.3-20.3,87.7-54.2,120.9C273.26,397.61,230.66,414.61,181.26,415.41Zm75.2-204.9c28,.8,52-22,52-51.6,0-29.3-23-50.5-49.4-51.9-32.5-1.7-54.2,25.2-54.8,50.5C203.76,186.61,228.16,211.91,256.46,210.51Z"/>
        <path d="M362.36,106a53.13,53.13,0,0,1-53.2-53h0c.1-28.9,24.1-53.5,52.9-53,28.5.5,53.3,21,53.2,53.2C415.06,87.51,387.86,105.91,362.36,106Z"/>
    </g>
</svg>