<svg id="perl" data-name="perl" xmlns="http://www.w3.org/2000/svg" viewBox="0 0 200 200">
    <title>perl</title>
    <path d="M51,200l-6.1-5.5c2.8-1.1,5-2.4,7.4-2.8c3-0.5,4.7-1.7,5.7-4.6c2.5-6.9,6.2-13.4,7.6-20.5c1.6-8.2,0.5-16.8-0.3-25.3
	c-1-9.6,0-19.5,0-29.2c0-2.7-0.3-5.4-0.4-9.2c-9.8,6-17.5,0.9-25.3-2.3c-2.4-1-4.5-3.3-6.2-5.5c-4.4-5.6-8.4-11.3-12.5-17.1
	c-0.8-1-1.4-2.2-1.5-3.4c0.1-6.5,1.1-13.1,0.7-19.5c-0.4-6.8,2.9-11.8,5.8-17.2c2.6-4.7,0.4-7.3-5.4-8.1c-3.2-0.4-7-1.6-9.1-3.8
	c-3.1-3.3,2-11.2,7.3-12c2.6-0.5,5.3-0.7,7.9-0.8c4.9,0,9.1-0.4,12.5-5.2c3-4.2,11.4-2.6,16,2.4c3.1,3.3,7.2,6.1,6.2,11.7
	c-0.1,0.6,0.7,1.4,1.2,2c2.9,3.2,2.7,6.7,1.6,10.6C61.8,43.1,60,51.6,57.7,60c-1.3,4.7,0.3,6.5,5.1,6.6c0.8-8.9,4.5-17.4,10.6-24
	c1.9-2.2,4.2-4.1,6.7-5.7c8.3-5,15.3-11,19.6-20.2c2.4-5,7.6-8.2,12.9-9.9c6.4-2.1,13.1-4.6,19.6-4.4c11.4,0.4,18.1,5.9,21.5,17.9
	c2,7.1,5.5,13.9,8.6,20.7c2.5,5.3,6.3,10.1,7.9,15.6c2.3,7.7,6.4,14,11.5,19.7c3.1,3.5,4,7.2,4,11.7c-0.1,6.6,1.2,13.2-1.1,19.7
	c-0.8,2.3-1.8,4.5-2.9,6.6c-1.5,3-3.1,5.9-5,9.4c-2.8-4.1-2.8-7.6-1.1-11.6c1.4-3.1,2.3-6.4,2.5-9.8c0.2-5.8-0.4-11.7-0.8-17.6
	c0-0.7-0.6-1.4-1.4-2.9c-1.4,1.6-2.8,2.6-3.3,4c-1.5,4.2-3.4,8.4-3.6,12.7c-0.5,9.4,0,18.8,0.1,28.2c0,2.6,0,5.2-0.2,7.9
	c-0.2,3.3-1.3,6.3,0.3,10c1.3,2.9-0.2,7.1-0.7,10.7c-0.9,7-2.5,14-2.8,21.1c-0.2,4.8,1.2,9.6,1.7,14.4c0.2,1.7,0.4,4.6-0.5,5.1
	c-1.7,1.1-4.2,1-6.4,1.1c-1.2-0.1-2.5-0.3-3.6-0.7c-1.2-0.3-2.9-0.3-3.3-1c-0.5-0.9-0.1-2.5,0.4-3.6c4.3-9.2,8.1-18.4,8-28.8
	c-0.1-7.4,0.1-14.8-0.2-22.2c-0.2-2.8-0.8-5.6-1.8-8.2c-1.5-4.5-3.8-8.8-5.1-13.3c-2-6.8-3.5-13.7-5.5-21.9c-3.1,5.3-6.2,9.9-8.6,15
	c-4,8.4-3.7,17.4-3.1,26.4c0.3,4-1.4,6.4-3.7,9.2c-4.3,5.3-8.3,10.9-12.2,16.5c-2,2.9-1.4,5.2,1.9,7.4c1.9,1.3,3.4,4,3.9,6.3
	c0.7,2.8,0.2,5.9,0.2,8.9c-6.4,2.4-6.4,2.4-12.3-9.4c-0.7,1.7-1.3,3.4-2,5.1c-0.6,1.4-1.3,3.7-2,3.8c-5.3,0.3-10.7,0.2-16.1,0.2
	l-0.8-2c1.9-1.3,3.6-3.2,5.7-3.8c8.2-2.3,11.1-9.6,5.7-16c-3.8-4.4-7.9-8.5-12.3-12.3c-3.8-3.4-5.6-6.6-4.5-12.1
	c0.7-4.1,1.9-8.1,3.4-11.9c2-4.9,2.3-10.5,3.4-16.6l-11.4-1.5c-0.4,3.4-0.4,6.2-1.1,8.8c-1.7,5.7-4.1,11.2-5.5,17
	c-1,4.1-1,8.4-1.6,12.6c-0.4,2.9-1,5.8-1.7,8.6c-2.3,9.2-4.5,18.5-7,27.7c-1.4,5-3.1,9.9-4.8,14.8L51,200z M124.7,108.6l-2.1-1
	c-1,1.2-1.9,2.5-2.6,3.9c-1,2.4-1.9,4.9-2.6,7.4c-1.2,4.3-5.4,7.4-4.8,12.6c0.3,3.1-1.4,5.3-4.9,6.9s-7.8,5.3-6.4,9.6
	c2.1,6.9,5.6,13.6,14.1,16.1c4.5-7.3,10-14,9.7-23.4c-0.2-7.1-0.3-14.2-0.4-21.3C124.6,115.8,124.7,112.2,124.7,108.6z"/>
</svg>