<svg id="scala" data-name="scala" xmlns="http://www.w3.org/2000/svg" viewBox="0 0 368.4 594.2">
    <title>scala</title>
    <g id="plain">
        <path d="M368.1,183.1v141c-1.5,6.5-6.4,10.3-11.4,13.9c-14.7,10.6-31.8,15.9-48.9,20.8c-49.7,14.4-100.7,22.1-151.8,29.6
			c-34.9,5.2-69.9,9.3-104.9,14.3c-16.1,2.3-32.4,3.8-48.2,8.4c-0.9,0.4-2,0.4-2.9,0v-139c1.4-2.7,4.1-3.2,6.7-3.8
			c14.8-3.5,29.8-5.4,44.8-7.5c25.1-3.5,50.2-6.5,75.2-10.1c39-5.6,78.1-11.3,116.8-18.9c26.8-5.2,53.5-11.1,79.4-20
			c9-3,17.7-6.8,26.1-11.4c6.3-3.5,12.1-7.7,15.5-14.4C365.3,184.7,365.9,182.9,368.1,183.1z"/>
        <path d="M367.1,0.1c2.1,0.9,0.9,2.7,0.9,4c0.1,45.3,0.1,90.7,0.1,136c-2.9,11.4-12.8,15.9-21.8,20.5c-22.6,11.5-47,17.6-71.6,23.2
			c-58.6,13.2-118,21.1-177.4,29.1c-27.2,3.7-54.5,6.8-81.6,11.5c-5.2,0.9-10.1,3.5-15.6,2.7v-139c2.2-2.9,5.6-3.4,8.8-4.1
			c17.2-4,34.8-5.9,52.3-8.2c45.2-6.1,90.5-11.7,135.5-19.2c33.3-5.5,66.7-11.3,99.3-20.2c14.3-3.8,28.4-8.5,42.1-14.1
			C349.9,17.4,360,10.8,367.1,0.1z"/>
        <path d="M2.1,594.1c-0.6-0.4-2.1,1-2-1c0.1-1.2,0-2.3,0-3.5V456.1c1.6-3.4,4.7-3.9,7.9-4.5c18.1-3.6,36.4-6.1,54.8-8.6
			c27.4-3.7,54.8-7.2,82.1-11.2c35.9-5.3,71.8-10.7,107.4-17.9c24.5-5,48.9-10.5,72.4-18.9c10-3.6,19.9-7.5,28.9-13.5
			c4.4-2.8,8.1-6.5,10.8-10.9c0.9-1.5,1.4-3.5,3.8-3.4v140c-2.3,10.3-10.6,14.9-18.8,19.4c-17.2,9.5-36,14.8-54.8,19.7
			c-42.1,11-85,17.8-128,24.3c-36.5,5.5-73.2,10-109.8,15.1C38.5,588.1,20.2,590.5,2.1,594.1z"/>
    </g>
</svg>