<svg id="xml" data-name="xml" xmlns="http://www.w3.org/2000/svg" viewBox="0 0 589.1 179.1">
    <title>xml</title>
    <g id="plain">
        <path d="M211.1,0h73c0.1,1.3,0.2,2.6,0.5,3.9c4.2,16.2,8.3,32.4,12.5,48.6c4.8,18.4,9.5,36.8,14.3,55.2l0.9,0.1L340.1,0h72v179h-45
			V45.1c-1.6,3.7-3,7.6-4,11.5c-6.7,25.6-13.3,51.3-19.8,77c-3.8,15.1-7.5,30.3-11.2,45.4h-41c0-1.2,0-2.3-0.2-3.5
			c-9.3-36-18.5-72.1-27.8-108.1c-1.9-7.5-4.1-15-6.2-22.4l-0.8,0.2V179h-45V0z"/>
        <path d="M193.1,179h-61c-11.7-19-23.4-38-35.6-58l-35.4,58c-19.3,0-38.7,0-58,0c-1.3,0-3.6,1.1-3-2c0.5-0.4,1.2-0.6,1.6-1.1
			c19.2-29,38.2-58,57.6-86.9c2.3-3.5,0.9-5.5-0.6-7.8C45.2,60.6,31.6,40.1,18.1,19.5c-4.2-6.4-8-13-12-19.5h60
			c10.4,18.3,20.8,36.6,31.4,55.2c5.3-9.2,10.4-17.8,15.2-26.5C118,19.3,123,9.6,128.1,0h60c-2.3,3.8-4.4,7.6-6.8,11.3
			c-15.6,24.3-31.2,48.5-46.7,72.8c-0.8,1.5-0.8,3.3,0,4.9c13.5,20.6,27.1,41.1,40.5,61.7C181.3,160,187.1,169.5,193.1,179z"/>
        <path d="M589.1,135v44h-141V0h54c0,43.1,0.1,86.3-0.1,129.4c0,4.4,1.2,5.7,5.6,5.7C534.8,134.9,561.9,135,589.1,135z"/>
    </g>
</svg>